<svg width="128" height="128" viewBox="0 0 128 128" fill="none" xmlns="http://www.w3.org/2000/svg">
  <title>中影广告 Logo</title>
  <defs>
    <linearGradient id="bg" x1="18" y1="12" x2="112" y2="118" gradientUnits="userSpaceOnUse">
      <stop stop-color="#121826"/>
      <stop offset="0.52" stop-color="#071018"/>
      <stop offset="1" stop-color="#1B2433"/>
    </linearGradient>
    <linearGradient id="gold" x1="30" y1="18" x2="99" y2="105" gradientUnits="userSpaceOnUse">
      <stop stop-color="#F8E5A3"/>
      <stop offset="0.34" stop-color="#D9A63A"/>
      <stop offset="0.68" stop-color="#A96F18"/>
      <stop offset="1" stop-color="#FFE7A1"/>
    </linearGradient>
    <linearGradient id="light" x1="42" y1="32" x2="92" y2="96" gradientUnits="userSpaceOnUse">
      <stop stop-color="#FFFFFF" stop-opacity="0.9"/>
      <stop offset="0.35" stop-color="#F6D77E" stop-opacity="0.62"/>
      <stop offset="1" stop-color="#F6D77E" stop-opacity="0"/>
    </linearGradient>
    <filter id="shadow" x="8" y="8" width="112" height="112" filterUnits="userSpaceOnUse" color-interpolation-filters="sRGB">
      <feDropShadow dx="0" dy="8" stdDeviation="10" flood-color="#020617" flood-opacity="0.28"/>
    </filter>
  </defs>
  <rect x="14" y="14" width="100" height="100" rx="28" fill="url(#bg)" filter="url(#shadow)"/>
  <path d="M40 88L64 30L88 88H76.8L71.8 74.8H56.2L51.2 88H40ZM59.2 66.1H68.8L64 52.4L59.2 66.1Z" fill="url(#gold)"/>
  <path d="M35 42C45.4 29.8 63.3 25.7 78 32.4C83.3 34.8 88 38.6 91.6 43.3" stroke="url(#gold)" stroke-width="7" stroke-linecap="round"/>
  <path d="M93 86C82.6 98.2 64.7 102.3 50 95.6C44.7 93.2 40 89.4 36.4 84.7" stroke="url(#gold)" stroke-width="7" stroke-linecap="round"/>
  <path d="M66 31L92 96H76L61 56L66 31Z" fill="url(#light)"/>
  <path d="M34 34H94V94H34V34Z" stroke="#FFFFFF" stroke-opacity="0.08" stroke-width="1.5"/>
</svg>
